<svg xmlns="http://www.w3.org/2000/svg" xmlns:xlink="http://www.w3.org/1999/xlink" viewBox="176 96 202 215"><defs><path id="a" d="M0 0h600v400H0z"/></defs><clipPath id="b"><use xlink:href="#a"/></clipPath><path clip-path="url(#b)" fill-rule="evenodd" clip-rule="evenodd" fill="#4B4" d="M371.7 183l6 2.5c-.9-47.7 5.3-49.7-31.5-12.9l25.5 10.4z"/><path clip-path="url(#b)" fill-rule="evenodd" clip-rule="evenodd" fill="#234" d="M356.3 234.8l10.2 75.4h11.3l-6.6-80.8zM227.9 188.1l.7-1.1c12.6-32.8 30.1-54.3 47.7-63.5 33.6-17.7 66.7 20 65.5 47.3L310.3 158c-38.6-15.7-31-15.4-16.9 24.3l-12.2 14.6c7 8.7 15.2 17 23.8 23.8l-.4 2.1 6 87.6h-10.5c-12.3-88.6-25.1-144.1-18.8-37.4.5 7.9 3.2 27.2 4 37.4h-11.1c-1.5-9.8-5.9-45.1-7.6-53.8-20.5-102.5-38.6-40-23.4 53.8h-11.4c-5.6-35-12.2-106.2-23.2-148.3-5.4-20.7-17-49.8-31.7-65.4 36.6 2.2 47.3 60.5 51 91.4M348.8 199.8c-1.2-2.5 4.8-8.4 8.9-9.8 0 6.6 1 16.1 3.1 12 0 0 1.2-5.9 1.2-10.8 4.4 3.4 9.4 11.7 6 12.9-4.1 1.5-4.1 2-8.5 3.1-5 1.1-10.6-7.3-10.7-7.4"/><path clip-path="url(#b)" fill-rule="evenodd" clip-rule="evenodd" fill="#234" d="M329.5 200.2c2.2-2.4-2.6-11.1-6.8-14.2 0 6.3-1.5 14-1.6 14-2.5 5.2-3.8-6-3.9-14.4-6.2 2.4-14.9 10.4-11.4 13 4.3 3.2 4.1 3.8 8.8 6.4 5.5 3 14.9-4.8 14.9-4.8M314.8 211.8l7.5 6 2.3-6.3 5.4 5.6 3.1-5.1 3.3 4.6 2.5-4.5 3.5 5.7 4.1-4.8 2.2 5.1 2.9-3.5 3.9 5.6 6.9-5.3-6.1 15.4-6.7-8.3-4.9 7.4-3.9-6.8-4 6.4-4-8.3-6.2 6.8-2.3-7.5-4.3 5.1z"/></svg>
