<svg xmlns="http://www.w3.org/2000/svg" xmlns:xlink="http://www.w3.org/1999/xlink" viewBox="176 96 211 294"><defs><path id="a" d="M0 0h600v400H0z"/></defs><clipPath id="b"><use xlink:href="#a"/></clipPath><path clip-path="url(#b)" fill-rule="evenodd" clip-rule="evenodd" fill="#aaaaac" d="M371.718 182.997l6.038 2.535c-.862-47.67 5.293-49.712-31.52-12.924l25.482 10.389z"/><path clip-path="url(#b)" fill-rule="evenodd" clip-rule="evenodd" fill="#dddddf" d="M356.252 234.822l10.255 75.405h11.249l-6.586-80.838zM227.886 188.097l.719-1.145c12.629-32.832 30.116-54.255 47.665-63.504 33.564-17.69 66.662 19.963 65.516 47.346l-31.501-12.814c-38.583-15.694-30.965-15.432-16.875 24.278l-12.208 14.558c7.048 8.744 15.151 17.022 23.836 23.751l-.355 2.078 5.972 87.581h-10.47c-12.253-88.617-25.148-144.077-18.776-37.441.469 7.863 3.16 27.184 3.963 37.441h-11.099c-1.481-9.814-5.901-45.101-7.65-53.844-20.509-102.504-38.56-40.044-23.369 53.844h-11.471c-5.576-34.972-12.162-106.236-23.219-148.33-5.433-20.693-17.004-49.75-31.715-65.43 36.625 2.404 47.336 60.702 51.037 91.631M348.828 199.841c-1.231-2.478 4.85-8.446 8.911-9.812.033 6.627 1.05 16.148 3.093 11.952.02-.038 1.217-5.884 1.232-10.809 4.352 3.356 9.376 11.67 5.997 12.925-4.121 1.528-4.134 2.047-8.53 3.053-4.999 1.144-10.679-7.262-10.703-7.309"/><path clip-path="url(#b)" fill-rule="evenodd" clip-rule="evenodd" fill="#dddddf" d="M329.529 200.154c2.222-2.413-2.612-11.112-6.806-14.201.036 6.304-1.537 13.982-1.56 14.032-2.507 5.15-3.792-6.039-3.906-14.367-6.175 2.358-14.936 10.394-11.422 12.998 4.256 3.152 4.098 3.758 8.848 6.398 5.402 3.006 14.804-4.816 14.846-4.86M314.753 211.788l7.497 5.965 2.311-6.25 5.405 5.608 3.143-5.155 3.312 4.622 2.527-4.459 3.448 5.653 4.143-4.732 2.179 5.095 2.844-3.558 3.931 5.666 6.927-5.358-6.15 15.438-6.705-8.344-4.834 7.452-3.975-6.847-3.92 6.449-4.049-8.357-6.14 6.807-2.389-7.508-4.248 5.124z"/><text transform="translate(192 373)" fill="#fdfdff" font-family="'Lato'" font-weight="700" font-size="57">Grawlix</text></svg>